<svg width="24" height="24" viewBox="0 0 24 24" fill="none" xmlns="http://www.w3.org/2000/svg">
<path d="M7.96086 14.6262C7.57034 15.0167 7.57034 15.6499 7.96086 16.0404C8.35139 16.431 8.98455 16.431 9.37508 16.0404L7.96086 14.6262ZM12.7084 12.7071C13.0989 12.3166 13.0989 11.6834 12.7084 11.2929C12.3179 10.9024 11.6847 10.9024 11.2942 11.2929L12.7084 12.7071ZM11.2942 11.2929C10.9037 11.6834 10.9037 12.3166 11.2942 12.7071C11.6847 13.0976 12.3179 13.0976 12.7084 12.7071L11.2942 11.2929ZM16.0417 9.37376C16.4323 8.98324 16.4323 8.35007 16.0417 7.95955C15.6512 7.56903 15.0181 7.56903 14.6275 7.95955L16.0417 9.37376ZM12.7084 11.2929C12.3179 10.9024 11.6847 10.9024 11.2942 11.2929C10.9037 11.6834 10.9037 12.3166 11.2942 12.7071L12.7084 11.2929ZM14.6275 16.0404C15.0181 16.431 15.6512 16.431 16.0417 16.0404C16.4323 15.6499 16.4323 15.0167 16.0417 14.6262L14.6275 16.0404ZM11.2942 12.7071C11.6847 13.0976 12.3179 13.0976 12.7084 12.7071C13.0989 12.3166 13.0989 11.6834 12.7084 11.2929L11.2942 12.7071ZM9.37508 7.95955C8.98455 7.56903 8.35139 7.56903 7.96086 7.95955C7.57034 8.35007 7.57034 8.98324 7.96086 9.37376L9.37508 7.95955ZM9.37508 16.0404L12.7084 12.7071L11.2942 11.2929L7.96086 14.6262L9.37508 16.0404ZM12.7084 12.7071L16.0417 9.37376L14.6275 7.95955L11.2942 11.2929L12.7084 12.7071ZM11.2942 12.7071L14.6275 16.0404L16.0417 14.6262L12.7084 11.2929L11.2942 12.7071ZM12.7084 11.2929L9.37508 7.95955L7.96086 9.37376L11.2942 12.7071L12.7084 11.2929Z" fill="#E2E4EB"/>
<rect x="1" y="1" width="22" height="22" rx="11" stroke="#E2E4EB" stroke-width="2"/>
</svg>
