<svg width="45" height="30" viewBox="0 0 45 30" fill="none" xmlns="http://www.w3.org/2000/svg">
<g clip-path="url(#clip0_979_28224)">
<path d="M24.9465 18.7712H19.9141V9.68384H24.9465V18.7712Z" fill="#6C6BBD"/>
<path d="M31.5548 17.8071V17.583H31.4967L31.4294 17.737L31.3625 17.583H31.304V17.8071H31.3453V17.6382L31.4082 17.784H31.451L31.5139 17.6378V17.8071H31.5548ZM31.1859 17.8071V17.6213H31.2604V17.5834H31.0703V17.6213H31.1449V17.8071H31.1859Z" fill="#0099DF"/>
<path d="M29.0396 22.7956V22.8335H29.0744C29.082 22.8335 29.0886 22.8316 29.093 22.8287C29.0977 22.8258 29.1003 22.8206 29.1003 22.8144C29.1003 22.8082 29.0977 22.8034 29.093 22.8004C29.0886 22.7971 29.082 22.7956 29.0744 22.7956H29.0396ZM29.0747 22.7692C29.0926 22.7692 29.1065 22.7733 29.1164 22.7813C29.1263 22.7894 29.131 22.8004 29.131 22.8144C29.131 22.8262 29.1274 22.8357 29.1193 22.8434C29.1117 22.8507 29.1003 22.8555 29.086 22.8574L29.1321 22.9106H29.0963L29.0535 22.8577H29.0396V22.9106H29.0096V22.7692H29.0747ZM29.0656 22.9591C29.082 22.9591 29.0974 22.9562 29.1113 22.95C29.1255 22.9437 29.138 22.9353 29.1486 22.9246C29.1592 22.914 29.1676 22.9014 29.1738 22.8867C29.1797 22.8724 29.1829 22.857 29.1829 22.8405C29.1829 22.8239 29.1797 22.8085 29.1738 22.7942C29.1676 22.7798 29.1592 22.767 29.1486 22.7564C29.138 22.7457 29.1255 22.7372 29.1113 22.7313C29.0974 22.7251 29.082 22.7221 29.0656 22.7221C29.0491 22.7221 29.0334 22.7251 29.0191 22.7313C29.0045 22.7372 28.9917 22.7457 28.9811 22.7564C28.9705 22.767 28.9621 22.7798 28.9562 22.7942C28.95 22.8085 28.9471 22.8239 28.9471 22.8405C28.9471 22.857 28.95 22.8724 28.9562 22.8867C28.9621 22.9014 28.9705 22.914 28.9811 22.9246C28.9917 22.9353 29.0045 22.9437 29.0191 22.95C29.0334 22.9562 29.0491 22.9591 29.0656 22.9591ZM29.0656 22.688C29.0871 22.688 29.1069 22.692 29.1255 22.7001C29.1445 22.7078 29.1607 22.7189 29.1749 22.7328C29.1888 22.7464 29.1998 22.7626 29.2078 22.7813C29.2159 22.7997 29.2199 22.8195 29.2199 22.8405C29.2199 22.8614 29.2159 22.8813 29.2078 22.8996C29.1998 22.918 29.1888 22.9342 29.1749 22.9478C29.1607 22.9617 29.1445 22.9728 29.1255 22.9808C29.1069 22.9889 29.0871 22.993 29.0656 22.993C29.0436 22.993 29.0235 22.9889 29.0045 22.9808C28.9855 22.9728 28.9691 22.9617 28.9551 22.9478C28.9412 22.9342 28.9302 22.918 28.9222 22.8996C28.9142 22.8813 28.9102 22.8614 28.9102 22.8405C28.9102 22.8195 28.9142 22.7997 28.9222 22.7813C28.9302 22.7626 28.9412 22.7464 28.9551 22.7328C28.9691 22.7189 28.9855 22.7078 29.0045 22.7001C29.0235 22.692 29.0436 22.688 29.0656 22.688Z" fill="#231F20"/>
<path d="M26.6428 21.3373C26.7097 21.3373 26.8058 21.3502 26.8794 21.3792L26.777 21.6937C26.7068 21.6647 26.6366 21.6552 26.5693 21.6552C26.352 21.6552 26.2434 21.7963 26.2434 22.0498V22.9103H25.9111V21.3759H26.2402V21.5622C26.3265 21.4274 26.4512 21.3373 26.6428 21.3373ZM25.4148 21.6809H24.8718V22.3742C24.8718 22.5282 24.9259 22.6311 25.0923 22.6311C25.1786 22.6311 25.2872 22.6021 25.3859 22.5444L25.4817 22.8299C25.3764 22.9037 25.2104 22.9489 25.0667 22.9489C24.6736 22.9489 24.5364 22.7369 24.5364 22.3805V21.6809H24.2263V21.3759H24.5364V20.9104H24.8718V21.3759H25.4148V21.6809ZM21.1623 22.0083C21.1977 21.7867 21.3315 21.6357 21.5682 21.6357C21.7821 21.6357 21.9196 21.7705 21.9547 22.0083H21.1623ZM22.2999 22.1431C22.2966 21.6647 22.0026 21.3373 21.5744 21.3373C21.1272 21.3373 20.8141 21.6647 20.8141 22.1431C20.8141 22.6307 21.1399 22.9486 21.597 22.9486C21.827 22.9486 22.0377 22.8909 22.2231 22.7336L22.06 22.4863C21.9324 22.5892 21.7693 22.6469 21.6161 22.6469C21.4021 22.6469 21.2072 22.5473 21.1593 22.2714H22.2933C22.2966 22.2295 22.2999 22.1879 22.2999 22.1431ZM23.7597 21.7676C23.6672 21.7096 23.4789 21.6357 23.2839 21.6357C23.1018 21.6357 22.9932 21.7033 22.9932 21.8158C22.9932 21.9182 23.108 21.9473 23.2518 21.9664L23.4083 21.9888C23.7407 22.0373 23.9418 22.1784 23.9418 22.4481C23.9418 22.7402 23.6862 22.9489 23.2455 22.9489C22.9962 22.9489 22.7662 22.8846 22.584 22.7497L22.7405 22.4896C22.8525 22.5763 23.0189 22.6502 23.2489 22.6502C23.4755 22.6502 23.597 22.583 23.597 22.4639C23.597 22.3776 23.5107 22.3291 23.3286 22.3037L23.1721 22.2813C22.8301 22.2328 22.6447 22.0788 22.6447 21.8286C22.6447 21.5236 22.8941 21.3373 23.2807 21.3373C23.5235 21.3373 23.744 21.3921 23.9035 21.4979L23.7597 21.7676ZM27.8572 21.6545C27.7888 21.6545 27.7256 21.6666 27.6667 21.6905C27.6082 21.7147 27.5573 21.7485 27.5145 21.7919C27.4718 21.8352 27.4381 21.8874 27.4136 21.948C27.3891 22.0086 27.3771 22.0755 27.3771 22.1482C27.3771 22.2214 27.3891 22.2879 27.4136 22.3485C27.4381 22.4091 27.4718 22.4613 27.5145 22.5047C27.5573 22.5481 27.6082 22.5819 27.6667 22.6061C27.7256 22.6303 27.7888 22.6421 27.8572 22.6421C27.9256 22.6421 27.9892 22.6303 28.0478 22.6061C28.1066 22.5819 28.1578 22.5481 28.2006 22.5047C28.2441 22.4613 28.2778 22.4091 28.3026 22.3485C28.3271 22.2879 28.3392 22.2214 28.3392 22.1482C28.3392 22.0755 28.3271 22.0086 28.3026 21.948C28.2778 21.8874 28.2441 21.8352 28.2006 21.7919C28.1578 21.7485 28.1066 21.7147 28.0478 21.6905C27.9892 21.6666 27.9256 21.6545 27.8572 21.6545ZM27.8572 21.3373C27.9757 21.3373 28.0854 21.3579 28.1863 21.3995C28.2873 21.4406 28.3747 21.4975 28.4481 21.5699C28.522 21.6423 28.5795 21.7279 28.6212 21.8264C28.6628 21.9252 28.6837 22.0325 28.6837 22.1482C28.6837 22.264 28.6628 22.3713 28.6212 22.4701C28.5795 22.5686 28.522 22.6546 28.4481 22.727C28.3747 22.7994 28.2873 22.856 28.1863 22.8974C28.0854 22.9386 27.9757 22.9592 27.8572 22.9592C27.7387 22.9592 27.629 22.9386 27.5281 22.8974C27.4271 22.856 27.3405 22.7994 27.2674 22.727C27.1943 22.6546 27.1368 22.5686 27.0951 22.4701C27.0534 22.3713 27.0326 22.264 27.0326 22.1482C27.0326 22.0325 27.0534 21.9252 27.0951 21.8264C27.1368 21.7279 27.1943 21.6423 27.2674 21.5699C27.3405 21.4975 27.4271 21.4406 27.5281 21.3995C27.629 21.3579 27.7387 21.3373 27.8572 21.3373ZM19.2212 22.1431C19.2212 21.8734 19.3971 21.6519 19.6845 21.6519C19.9592 21.6519 20.1446 21.8639 20.1446 22.1431C20.1446 22.4224 19.9592 22.634 19.6845 22.634C19.3971 22.634 19.2212 22.4128 19.2212 22.1431ZM20.4576 22.1431V21.3759H20.1255V21.5622C20.0199 21.424 19.8604 21.3373 19.6432 21.3373C19.215 21.3373 18.8796 21.6742 18.8796 22.1431C18.8796 22.6116 19.215 22.9489 19.6432 22.9489C19.8604 22.9489 20.0199 22.8622 20.1255 22.724V22.9103H20.4576V22.1431ZM18.5856 22.9103V21.9473C18.5856 21.5846 18.3556 21.3407 17.9852 21.3373C17.7903 21.334 17.5888 21.395 17.4483 21.6103C17.343 21.4402 17.1766 21.3373 16.9433 21.3373C16.7806 21.3373 16.6208 21.3855 16.4961 21.5652V21.3759H16.1641V22.9103H16.4994V22.0597C16.4994 21.7933 16.6464 21.6519 16.8731 21.6519C17.0936 21.6519 17.2055 21.7963 17.2055 22.0564V22.9103H17.5409V22.0597C17.5409 21.7933 17.6945 21.6519 17.9146 21.6519C18.1417 21.6519 18.2503 21.7963 18.2503 22.0564V22.9103H18.5856Z" fill="#9A9C9E"/>
<path d="M31.7318 14.2269C31.7318 17.4188 29.1569 20.0063 25.9806 20.0063C24.6389 20.0063 23.4043 19.5444 22.4258 18.7706C23.7638 17.7124 24.6228 16.0703 24.6228 14.2269C24.6228 12.3835 23.7638 10.7414 22.4258 9.68319C23.4043 8.90938 24.6389 8.44751 25.9806 8.44751C29.1569 8.44751 31.7318 11.035 31.7318 14.2269Z" fill="#0099DF"/>
<path d="M20.2339 14.2269C20.2339 12.3835 21.0929 10.7414 22.4306 9.68319C21.4524 8.90938 20.2178 8.44751 18.8761 8.44751C15.6998 8.44751 13.125 11.035 13.125 14.2269C13.125 17.4188 15.6998 20.0063 18.8761 20.0063C20.2178 20.0063 21.4524 19.5444 22.4306 18.7706C21.0929 17.7124 20.2339 16.0703 20.2339 14.2269Z" fill="#EB001B"/>
</g>
<rect x="0.5" y="0.5" width="44" height="29" rx="4.5" stroke="#E2E4EB"/>
<defs>
<clipPath id="clip0_979_28224">
<rect width="19" height="15" fill="white" transform="translate(13 8)"/>
</clipPath>
</defs>
</svg>
