<svg width="45" height="30" viewBox="0 0 45 30" fill="none" xmlns="http://www.w3.org/2000/svg">
<path d="M20.1481 21.3246H17.3164L19.0876 10.0603H21.9191L20.1481 21.3246Z" fill="#00579F"/>
<path d="M30.4123 10.3355C29.8538 10.1076 28.9678 9.85596 27.8725 9.85596C25.0761 9.85596 23.1069 11.3897 23.0948 13.5826C23.0716 15.2005 24.5047 16.0991 25.5766 16.6385C26.6721 17.1898 27.0445 17.5495 27.0445 18.0409C27.0333 18.7956 26.1593 19.1434 25.344 19.1434C24.2134 19.1434 23.6077 18.964 22.6871 18.5442L22.3142 18.3642L21.918 20.8928C22.5822 21.204 23.8058 21.4802 25.0761 21.4923C28.0473 21.4923 29.9817 19.9823 30.0045 17.6454C30.0159 16.3632 29.2592 15.3806 27.6277 14.5777C26.6373 14.0623 26.0307 13.7148 26.0307 13.1874C26.0424 12.708 26.5437 12.217 27.6618 12.217C28.5823 12.1929 29.2587 12.4205 29.771 12.6483L30.0272 12.7679L30.4123 10.3355Z" fill="#00579F"/>
<path d="M34.1779 17.334C34.4112 16.6869 35.3085 14.1824 35.3085 14.1824C35.2967 14.2065 35.5413 13.5233 35.6811 13.104L35.8789 14.0746C35.8789 14.0746 36.4152 16.7709 36.5316 17.334C36.0891 17.334 34.7373 17.334 34.1779 17.334ZM37.6733 10.0603H35.483C34.8076 10.0603 34.2944 10.2639 34.003 10.9949L29.7969 21.3245H32.7681C32.7681 21.3245 33.2573 19.9341 33.3624 19.6347C33.6884 19.6347 36.5787 19.6347 36.9981 19.6347C37.0793 20.0302 37.3359 21.3245 37.3359 21.3245H39.9578L37.6733 10.0603Z" fill="#00579F"/>
<path d="M14.9521 10.0603L12.179 17.7415L11.8759 16.1837C11.3632 14.3861 9.75531 12.4331 7.96094 11.4621L10.5011 21.3126H13.4955L17.9464 10.0603H14.9521Z" fill="#00579F"/>
<path d="M9.60252 10.0603H5.04661L5 10.2879C8.5539 11.2227 10.9076 13.4759 11.8746 16.1841L10.8842 11.0072C10.7211 10.2877 10.2201 10.084 9.60252 10.0603Z" fill="#FAA61A"/>
<rect x="0.5" y="0.5" width="44" height="29" rx="4.5" stroke="#E2E4EB"/>
</svg>
