<svg width="45" height="30" viewBox="0 0 45 30" fill="none" xmlns="http://www.w3.org/2000/svg">
<g clip-path="url(#clip0_979_28216)">
<path d="M31.6136 22.7969V22.8359H31.6491C31.6569 22.8359 31.6636 22.834 31.6685 22.831C31.6729 22.828 31.6755 22.8226 31.6755 22.8162C31.6755 22.8097 31.6729 22.8048 31.6685 22.8018C31.6636 22.7984 31.6569 22.7969 31.6491 22.7969H31.6136ZM31.6494 22.7696C31.6677 22.7696 31.6819 22.7737 31.692 22.7821C31.7021 22.7904 31.7069 22.8018 31.7069 22.8162C31.7069 22.8283 31.7032 22.8382 31.695 22.8461C31.6871 22.8537 31.6759 22.8586 31.661 22.8605L31.7081 22.9155H31.6715L31.6278 22.8609H31.6136V22.9155H31.583V22.7696H31.6494ZM31.6401 22.9658C31.6569 22.9658 31.6725 22.9624 31.6868 22.956C31.7013 22.9496 31.714 22.9409 31.7248 22.9298C31.7357 22.9189 31.7443 22.906 31.7506 22.8908C31.7566 22.8761 31.7599 22.8601 31.7599 22.8431C31.7599 22.8261 31.7566 22.8101 31.7506 22.7954C31.7443 22.7806 31.7357 22.7673 31.7248 22.7563C31.714 22.7453 31.7013 22.7366 31.6868 22.7302C31.6725 22.7241 31.6569 22.7211 31.6401 22.7211C31.6233 22.7211 31.6072 22.7241 31.5927 22.7302C31.5777 22.7366 31.5646 22.7453 31.5538 22.7563C31.543 22.7673 31.5344 22.7806 31.5284 22.7954C31.5221 22.8101 31.5191 22.8261 31.5191 22.8431C31.5191 22.8601 31.5221 22.8761 31.5284 22.8908C31.5344 22.906 31.543 22.9189 31.5538 22.9298C31.5646 22.9409 31.5777 22.9496 31.5927 22.956C31.6072 22.9624 31.6233 22.9658 31.6401 22.9658ZM31.6401 22.6859C31.6621 22.6859 31.6823 22.69 31.7017 22.6983C31.7207 22.7063 31.7372 22.7176 31.7517 22.7321C31.7659 22.7461 31.7772 22.7628 31.7853 22.7821C31.7936 22.801 31.7977 22.8215 31.7977 22.8431C31.7977 22.8647 31.7936 22.8851 31.7853 22.9041C31.7772 22.923 31.7659 22.9397 31.7517 22.9541C31.7372 22.9681 31.7207 22.9795 31.7017 22.9878C31.6823 22.9962 31.6621 23.0003 31.6401 23.0003C31.6177 23.0003 31.5971 22.9962 31.5777 22.9878C31.5583 22.9795 31.5415 22.9681 31.5273 22.9541C31.5131 22.9397 31.5019 22.923 31.4937 22.9041C31.4855 22.8851 31.4814 22.8647 31.4814 22.8431C31.4814 22.8215 31.4855 22.801 31.4937 22.7821C31.5019 22.7628 31.5131 22.7461 31.5273 22.7321C31.5415 22.7176 31.5583 22.7063 31.5777 22.6983C31.5971 22.69 31.6177 22.6859 31.6401 22.6859ZM17.091 22.1239C17.091 21.8457 17.2706 21.6173 17.5641 21.6173C17.8446 21.6173 18.0339 21.8359 18.0339 22.1239C18.0339 22.4119 17.8446 22.6305 17.5641 22.6305C17.2706 22.6305 17.091 22.402 17.091 22.1239ZM18.3535 22.1239V21.3327H18.0145V21.5248C17.9069 21.3824 17.7437 21.2929 17.5219 21.2929C17.0846 21.2929 16.7418 21.6408 16.7418 22.1239C16.7418 22.6074 17.0846 22.9549 17.5219 22.9549C17.7437 22.9549 17.9069 22.8655 18.0145 22.723V22.9151H18.3535V22.1239ZM29.8118 22.1239C29.8118 21.8457 29.9914 21.6173 30.2849 21.6173C30.5657 21.6173 30.7547 21.8359 30.7547 22.1239C30.7547 22.4119 30.5657 22.6305 30.2849 22.6305C29.9914 22.6305 29.8118 22.402 29.8118 22.1239ZM31.0747 22.1239V20.6973H30.7353V21.5248C30.6277 21.3824 30.4646 21.2929 30.2427 21.2929C29.8054 21.2929 29.4626 21.6408 29.4626 22.1239C29.4626 22.6074 29.8054 22.9549 30.2427 22.9549C30.4646 22.9549 30.6277 22.8655 30.7353 22.723V22.9151H31.0747V22.1239ZM22.5625 21.601C22.7809 21.601 22.9213 21.7401 22.9571 21.9848H22.1479C22.1842 21.7563 22.3208 21.601 22.5625 21.601ZM22.5692 21.2929C22.1121 21.2929 21.7924 21.6306 21.7924 22.1239C21.7924 22.6271 22.1252 22.9549 22.5919 22.9549C22.8268 22.9549 23.0419 22.8954 23.2313 22.7332L23.0651 22.4782C22.9344 22.5839 22.7678 22.6438 22.6113 22.6438C22.3929 22.6438 22.1938 22.5411 22.145 22.2561H23.3029C23.3063 22.2133 23.3097 22.1702 23.3097 22.1239C23.3063 21.6306 23.0061 21.2929 22.5692 21.2929ZM26.6634 22.1239C26.6634 21.8457 26.843 21.6173 27.1366 21.6173C27.417 21.6173 27.6063 21.8359 27.6063 22.1239C27.6063 22.4119 27.417 22.6305 27.1366 22.6305C26.843 22.6305 26.6634 22.402 26.6634 22.1239ZM27.926 22.1239V21.3327H27.5869V21.5248C27.479 21.3824 27.3162 21.2929 27.0944 21.2929C26.6571 21.2929 26.3143 21.6408 26.3143 22.1239C26.3143 22.6074 26.6571 22.9549 27.0944 22.9549C27.3162 22.9549 27.479 22.8655 27.5869 22.723V22.9151H27.926V22.1239ZM24.7485 22.1239C24.7485 22.604 25.0778 22.9549 25.5805 22.9549C25.8154 22.9549 25.9719 22.9018 26.1414 22.7662L25.9785 22.488C25.8512 22.5809 25.7175 22.6305 25.5704 22.6305C25.2997 22.6271 25.1006 22.4286 25.1006 22.1239C25.1006 21.8193 25.2997 21.6207 25.5704 21.6173C25.7175 21.6173 25.8512 21.6669 25.9785 21.7597L26.1414 21.4816C25.9719 21.346 25.8154 21.2929 25.5805 21.2929C25.0778 21.2929 24.7485 21.6438 24.7485 22.1239ZM29.1202 21.2929C28.9245 21.2929 28.7972 21.3858 28.7091 21.5248V21.3327H28.373V22.9151H28.7124V22.0281C28.7124 21.7662 28.8233 21.6207 29.0451 21.6207C29.1138 21.6207 29.1856 21.6306 29.2572 21.6605L29.3618 21.3361C29.2867 21.3062 29.1889 21.2929 29.1202 21.2929ZM20.0306 21.4585C19.8674 21.3494 19.6426 21.2929 19.3946 21.2929C18.9995 21.2929 18.7453 21.4851 18.7453 21.7995C18.7453 22.0576 18.9346 22.2167 19.2834 22.2664L19.4436 22.2895C19.6295 22.316 19.7173 22.3657 19.7173 22.4551C19.7173 22.5775 19.5933 22.6472 19.3618 22.6472C19.1269 22.6472 18.9573 22.571 18.8431 22.4816L18.6833 22.7495C18.8693 22.8885 19.1041 22.9549 19.3584 22.9549C19.8088 22.9549 20.0698 22.7396 20.0698 22.4384C20.0698 22.1603 19.8644 22.0148 19.525 21.9651L19.3652 21.9416C19.2184 21.922 19.1008 21.8924 19.1008 21.7863C19.1008 21.6703 19.2117 21.601 19.3976 21.601C19.5967 21.601 19.7894 21.6772 19.8839 21.7367L20.0306 21.4585ZM24.4057 21.2929C24.21 21.2929 24.0827 21.3858 23.9949 21.5248V21.3327H23.6588V22.9151H23.9979V22.0281C23.9979 21.7662 24.1088 21.6207 24.3306 21.6207C24.3993 21.6207 24.471 21.6306 24.5427 21.6605L24.6473 21.3361C24.5722 21.3062 24.4744 21.2929 24.4057 21.2929ZM21.512 21.3327H20.9575V20.8526H20.6147V21.3327H20.2983V21.6472H20.6147V22.3691C20.6147 22.7362 20.755 22.9549 21.1561 22.9549C21.3032 22.9549 21.4728 22.9087 21.5803 22.8325L21.4825 22.5376C21.3813 22.5972 21.2704 22.6271 21.1822 22.6271C21.0127 22.6271 20.9575 22.521 20.9575 22.3623V21.6472H21.512V21.3327ZM16.442 22.9151V21.922C16.442 21.5479 16.2071 21.2963 15.8284 21.2929C15.6294 21.2895 15.424 21.3524 15.2802 21.5745C15.1727 21.399 15.0031 21.2929 14.7649 21.2929C14.5983 21.2929 14.4355 21.3426 14.3082 21.5279V21.3327H13.9688V22.9151H14.3112V22.0379C14.3112 21.7632 14.4613 21.6173 14.6932 21.6173C14.9184 21.6173 15.0323 21.7662 15.0323 22.0345V22.9151H15.3751V22.0379C15.3751 21.7632 15.5315 21.6173 15.7567 21.6173C15.9882 21.6173 16.0992 21.7662 16.0992 22.0345V22.9151H16.442Z" fill="#9A9C9E"/>
<path d="M31.8229 17.6523V17.4211H31.7636L31.6949 17.5799L31.6265 17.4211H31.5668V17.6523H31.609V17.478L31.6732 17.6284H31.7169L31.7811 17.4776V17.6523H31.8229ZM31.4462 17.6523V17.4605H31.5223V17.4215H31.3281V17.4605H31.4044V17.6523H31.4462Z" fill="#F79410"/>
<path d="M25.0687 18.6466H19.9297V9.27515H25.0687V18.6466Z" fill="#FF5F00"/>
<path d="M20.2594 13.9601C20.2594 12.0591 21.1366 10.3657 22.5026 9.27437C21.5037 8.47637 20.243 8.00006 18.8729 8.00006C15.6293 8.00006 13 10.6684 13 13.9601C13 17.2518 15.6293 19.9202 18.8729 19.9202C20.243 19.9202 21.5037 19.4439 22.5026 18.6459C21.1366 17.5546 20.2594 15.8612 20.2594 13.9601Z" fill="#EB001B"/>
<path d="M32.0029 13.96C32.0029 17.2517 29.3737 19.9201 26.1301 19.9201C24.76 19.9201 23.4993 19.4438 22.5 18.6458C23.8663 17.5545 24.7436 15.8611 24.7436 13.96C24.7436 12.059 23.8663 10.3656 22.5 9.27431C23.4993 8.4763 24.76 8 26.1301 8C29.3737 8 32.0029 10.6684 32.0029 13.96Z" fill="#F79E1B"/>
</g>
<rect x="0.5" y="0.5" width="44" height="29" rx="4.5" stroke="#E2E4EB"/>
<defs>
<clipPath id="clip0_979_28216">
<rect width="19" height="15" fill="white" transform="translate(13 8)"/>
</clipPath>
</defs>
</svg>
