<svg width="45" height="30" viewBox="0 0 45 30" fill="none" xmlns="http://www.w3.org/2000/svg">
<path fill-rule="evenodd" clip-rule="evenodd" d="M35.5975 10H29.2695C29.6097 12.1093 31.651 14.0825 33.8964 14.0825H38.9315C38.9996 13.8784 38.9996 13.6062 38.9996 13.4021C38.9996 11.4969 37.5027 10 35.5975 10Z" fill="url(#paint0_linear_979_28233)"/>
<path fill-rule="evenodd" clip-rule="evenodd" d="M29.8125 14.4227V19.5259H32.8744V16.8042H35.5961C37.093 16.8042 38.3858 15.7836 38.7941 14.4227H29.8125Z" fill="#4DB45F"/>
<path fill-rule="evenodd" clip-rule="evenodd" d="M18.9297 10V19.5259H21.6514C21.6514 19.5259 22.3318 19.5259 22.672 18.8455C24.5092 15.1712 25.0535 14.0825 25.0535 14.0825H25.3937V19.5259H28.4556V10H25.7339C25.7339 10 25.0535 10.068 24.7133 10.6804C23.1483 13.8104 22.3318 15.4434 22.3318 15.4434H21.9916V10H18.9297Z" fill="#4DB45F"/>
<path fill-rule="evenodd" clip-rule="evenodd" d="M6 19.5259V10H9.0619C9.0619 10 9.94646 10 10.4228 11.3608C11.6475 14.9671 11.7836 15.4434 11.7836 15.4434C11.7836 15.4434 12.0558 14.5588 13.1444 11.3608C13.6207 10 14.5053 10 14.5053 10H17.5672V19.5259H14.5053V14.4228H14.1651L12.464 19.5259H11.1032L9.40212 14.4228H9.0619V19.5259H6Z" fill="#4DB45F"/>
<rect x="0.5" y="0.5" width="44" height="29" rx="4.5" stroke="#E2E4EB"/>
<defs>
<linearGradient id="paint0_linear_979_28233" x1="29.252" y1="12.0413" x2="38.9996" y2="12.0413" gradientUnits="userSpaceOnUse">
<stop stop-color="#00B4E6"/>
<stop offset="1" stop-color="#088CCB"/>
</linearGradient>
</defs>
</svg>
