<svg width="45" height="30" viewBox="0 0 45 30" fill="none" xmlns="http://www.w3.org/2000/svg">
<g clip-path="url(#clip0_979_28195)">
<path d="M16.1719 10.4697H27.8906C28.5352 10.4697 29.0625 10.9971 29.0625 11.6416V13.0479C29.0625 13.6924 28.5352 14.2198 27.8906 14.2198H16.1719C15.5273 14.2197 15 13.6924 15 13.0478V11.6416C15 10.9971 15.5273 10.4697 16.1719 10.4697Z" fill="#A86A3F"/>
<path d="M18.7383 11.7232L26.0742 9.77794C26.3203 9.70763 26.5781 9.85997 26.6484 10.1061L27.8672 14.6061C27.9375 14.8522 27.7851 15.11 27.539 15.1803L17.9883 17.7232C17.7422 17.7935 17.4844 17.6412 17.4141 17.3951L16.5234 14.0904L18.7383 11.7232Z" fill="#5EBA6D"/>
<path d="M26.591 14.4653L25.009 14.8872C24.8801 14.9223 24.7512 14.852 24.7278 14.7231C24.6926 14.5942 24.7629 14.4653 24.8918 14.4419L26.2512 14.0786L25.5247 11.3598L24.1653 11.7231C24.0364 11.7583 23.9075 11.6879 23.8841 11.559C23.8489 11.4302 23.9192 11.3012 24.0481 11.2778L25.6301 10.8559C25.759 10.8208 25.888 10.8911 25.9114 11.02L26.7551 14.1841C26.7902 14.313 26.7199 14.4419 26.591 14.4653ZM20.0285 16.2348L18.4465 16.6567C18.3176 16.6919 18.1887 16.6215 18.1653 16.4926L17.3215 13.3286C17.2864 13.1997 17.3567 13.0708 17.4856 13.0473L19.0676 12.6255C19.1965 12.5903 19.3254 12.6607 19.3489 12.7896C19.384 12.9185 19.3137 13.0474 19.1848 13.0708L17.8254 13.4341L18.552 16.1528L19.9113 15.7895C20.0402 15.7544 20.1692 15.8247 20.1926 15.9536C20.2277 16.0708 20.1574 16.1997 20.0285 16.2348Z" fill="#B3F0BD"/>
<path d="M15.0938 13.3641C17.1797 12.1687 22.8047 8.87576 22.8047 8.87576C23.0274 8.74686 23.3203 8.81717 23.4493 9.03983L25.793 13.0711C25.9219 13.2937 25.8399 13.575 25.6172 13.7039L17.0391 18.6258C16.8164 18.7547 16.5235 18.6844 16.3945 18.4617C16.3945 18.4617 15.7383 17.1258 15.082 16.0007C15.0821 13.3641 15.0938 14.2312 15.0938 13.3641Z" fill="#5EBA6D"/>
<path d="M24.5986 12.9418L22.958 10.1059C22.8876 9.98872 22.747 9.95355 22.6415 10.0239L21.2236 10.8442C21.1064 10.9145 21.0712 11.0551 21.1416 11.1606C21.2119 11.2778 21.3525 11.3129 21.458 11.2426L22.6767 10.5395L24.083 12.977L22.8642 13.6801C22.7471 13.7504 22.7119 13.891 22.7822 13.9965C22.8525 14.1137 22.9931 14.1489 23.0986 14.0786L24.5166 13.2583C24.622 13.1997 24.6689 13.059 24.5986 12.9418ZM18.3876 16.2583L17.1689 16.9614L15.7626 14.5239L16.9814 13.8207C17.0986 13.7504 17.1337 13.6098 17.0634 13.5043C16.9931 13.3871 16.8525 13.352 16.747 13.4223L15.329 14.2426C15.2119 14.3129 15.1767 14.4535 15.247 14.559L16.8876 17.3949C16.9579 17.5121 17.0986 17.5473 17.204 17.477L18.622 16.6567C18.7392 16.5864 18.7743 16.4457 18.704 16.3403C18.6454 16.2348 18.5048 16.1879 18.3876 16.2583ZM18.9853 12.1215C18.083 12.6372 17.7783 13.7856 18.2939 14.6879C18.8212 15.5903 19.9579 15.895 20.8603 15.3793C21.7626 14.8637 22.0673 13.7153 21.5517 12.8129C21.0243 11.9223 19.8876 11.6059 18.9853 12.1215ZM24.5986 12.9418L22.958 10.1059C22.8876 9.98872 22.747 9.95355 22.6415 10.0239L21.2236 10.8442C21.1064 10.9145 21.0712 11.0551 21.1416 11.1606C21.2119 11.2778 21.3525 11.3129 21.458 11.2426L22.6767 10.5395L24.083 12.977L22.8642 13.6801C22.7471 13.7504 22.7119 13.891 22.7822 13.9965C22.8525 14.1137 22.9931 14.1489 23.0986 14.0786L24.5166 13.2583C24.622 13.1997 24.6689 13.059 24.5986 12.9418ZM18.3876 16.2583L17.1689 16.9614L15.7626 14.5239L16.9814 13.8207C17.0986 13.7504 17.1337 13.6098 17.0634 13.5043C16.9931 13.3871 16.8525 13.352 16.747 13.4223L15.329 14.2426C15.2119 14.3129 15.1767 14.4535 15.247 14.559L16.8876 17.3949C16.9579 17.5121 17.0986 17.5473 17.204 17.477L18.622 16.6567C18.7392 16.5864 18.7743 16.4457 18.704 16.3403C18.6454 16.2348 18.5048 16.1879 18.3876 16.2583ZM18.9853 12.1215C18.083 12.6372 17.7783 13.7856 18.2939 14.6879C18.8212 15.5903 19.9579 15.895 20.8603 15.3793C21.7626 14.8637 22.0673 13.7153 21.5517 12.8129C21.0243 11.9223 19.8876 11.6059 18.9853 12.1215Z" fill="#B3F0BD"/>
<path d="M28.3594 22.1885H16.1719C15.5273 22.1885 15 21.6611 15 21.0166V12.5791H28.3594C29.0039 12.5791 29.5313 13.1065 29.5313 13.751V21.0166C29.5312 21.6611 29.0039 22.1885 28.3594 22.1885ZM15.9375 12.5791H15V11.6416C15 12.1572 15.4219 12.5791 15.9375 12.5791Z" fill="#C47E4D"/>
<path d="M29.5312 19.2588H27.6562C26.7539 19.2588 26.0156 18.5205 26.0156 17.6182C26.0156 16.7158 26.7539 15.9775 27.6562 15.9775H29.5312C29.7891 15.9775 30 16.1885 30 16.4463V18.79C30 19.0478 29.7891 19.2588 29.5312 19.2588Z" fill="#A86A3F"/>
<path d="M27.6563 16.6807C28.1719 16.6807 28.5938 17.1025 28.5938 17.6182C28.5938 18.1338 28.1719 18.5557 27.6563 18.5557C27.1406 18.5557 26.7188 18.1338 26.7188 17.6182C26.7188 17.1025 27.1406 16.6807 27.6563 16.6807Z" fill="#EFC75E"/>
<path d="M27.8906 18.3213C27.375 18.3213 26.9531 17.8994 26.9531 17.3838C26.9531 17.1846 27.0117 16.9971 27.1172 16.8447C26.8711 17.0088 26.7188 17.29 26.7188 17.6182C26.7188 18.1338 27.1406 18.5557 27.6563 18.5557C27.9727 18.5557 28.2539 18.3916 28.4297 18.1572C28.2773 18.2627 28.0898 18.3213 27.8906 18.3213Z" fill="#D7B354"/>
<path d="M28.3594 21.7197H16.1719C15.5273 21.7197 15 21.1924 15 20.5479V21.0166C15 21.6611 15.5273 22.1885 16.1719 22.1885H28.3594C29.0039 22.1885 29.5313 21.6611 29.5313 21.0166V20.5479C29.5312 21.1924 29.0039 21.7197 28.3594 21.7197Z" fill="#B27245"/>
<path d="M28.3594 12.5791H15.9375C15.4219 12.5791 15 12.1572 15 11.6416V12.1104C15 12.626 15.4219 13.0479 15.9375 13.0479H28.3594C29.0039 13.0479 29.5313 13.5752 29.5313 14.2198V13.751C29.5312 13.1065 29.0039 12.5791 28.3594 12.5791Z" fill="#CA8B5F"/>
</g>
<rect x="0.5" y="0.5" width="44" height="29" rx="4.5" stroke="#E2E4EB"/>
<defs>
<clipPath id="clip0_979_28195">
<rect width="15" height="15" fill="white" transform="translate(15 8)"/>
</clipPath>
</defs>
</svg>
