<svg width="45" height="30" viewBox="0 0 45 30" fill="none" xmlns="http://www.w3.org/2000/svg">
<g clip-path="url(#clip0_979_28262)">
<path d="M11.1474 11.4316C10.7292 11.1441 10.1835 11 9.51031 11H6.90408C6.6977 11 6.58369 11.1032 6.56203 11.3094L5.50332 17.9552C5.49232 18.0205 5.50865 18.0802 5.55217 18.1344C5.59543 18.1888 5.64985 18.2158 5.71502 18.2158H6.95297C7.1701 18.2158 7.28944 18.1129 7.31135 17.9064L7.6045 16.1147C7.61521 16.0279 7.65339 15.9573 7.71857 15.9029C7.78369 15.8486 7.86515 15.8132 7.96288 15.7969C8.06062 15.7808 8.15277 15.7726 8.2398 15.7726C8.32659 15.7726 8.4297 15.7781 8.54934 15.789C8.66868 15.7998 8.74476 15.8051 8.77737 15.8051C9.71121 15.8051 10.4442 15.542 10.9764 15.0151C11.5083 14.4885 11.7746 13.7583 11.7746 12.8242C11.7746 12.1835 11.5653 11.7193 11.1474 11.4314V11.4316ZM9.80362 13.4271C9.74915 13.8072 9.60814 14.0569 9.38011 14.1764C9.15203 14.296 8.82626 14.3555 8.40281 14.3555L7.86524 14.3718L8.14222 12.6288C8.16383 12.5095 8.23438 12.4497 8.35392 12.4497H8.66351C9.09766 12.4497 9.41277 12.5123 9.60824 12.637C9.80361 12.762 9.86879 13.0254 9.80362 13.4271Z" fill="#003087"/>
<path d="M38.6484 11H37.4432C37.3234 11 37.2529 11.0597 37.2314 11.1793L36.1726 17.9555L36.1562 17.9881C36.1562 18.0426 36.178 18.094 36.2215 18.1429C36.2647 18.1916 36.3193 18.2161 36.3843 18.2161H37.4596C37.6655 18.2161 37.7796 18.1131 37.8017 17.9067L38.8604 11.2445V11.2283C38.8603 11.0762 38.7895 11.0002 38.6484 11.0002V11Z" fill="#009CDE"/>
<path d="M24.088 13.6227C24.088 13.5686 24.0662 13.5169 24.023 13.4682C23.9794 13.4193 23.9305 13.3947 23.8764 13.3947H22.6221C22.5025 13.3947 22.4047 13.4493 22.3288 13.5576L20.6023 16.0987L19.8856 13.6554C19.831 13.4818 19.7117 13.3947 19.5272 13.3947H18.3054C18.2509 13.3947 18.2021 13.4192 18.1589 13.4682C18.1154 13.5169 18.0938 13.5687 18.0938 13.6227C18.0938 13.6446 18.1997 13.9648 18.4114 14.5838C18.6231 15.203 18.8511 15.8708 19.0955 16.5876C19.3398 17.3042 19.4673 17.6845 19.4782 17.7276C18.5877 18.944 18.1426 19.5955 18.1426 19.6823C18.1426 19.8235 18.2131 19.8941 18.3544 19.8941H19.6086C19.728 19.8941 19.8257 19.8399 19.9019 19.7312L24.0556 13.7367C24.0772 13.7152 24.088 13.6774 24.088 13.6227V13.6227Z" fill="#003087"/>
<path d="M35.7708 13.3948H34.5329C34.3807 13.3948 34.2887 13.574 34.2561 13.9324C33.9734 13.4982 33.4579 13.2808 32.7085 13.2808C31.9267 13.2808 31.2614 13.574 30.7132 14.1604C30.1647 14.7468 29.8906 15.4366 29.8906 16.2292C29.8906 16.8701 30.0779 17.3804 30.4525 17.7604C30.8271 18.1407 31.3293 18.3305 31.9594 18.3305C32.2742 18.3305 32.5946 18.2652 32.9203 18.135C33.2461 18.0047 33.5011 17.831 33.686 17.6138C33.686 17.6247 33.6749 17.6734 33.6535 17.7602C33.6315 17.8472 33.6208 17.9126 33.6208 17.9557C33.6208 18.1296 33.6912 18.2163 33.8326 18.2163H34.9566C35.1627 18.2163 35.2823 18.1133 35.3147 17.9068L35.9827 13.6554C35.9934 13.5901 35.9772 13.5306 35.9338 13.4762C35.8901 13.422 35.836 13.3948 35.7708 13.3948ZM33.6452 16.6039C33.3683 16.8754 33.0343 17.011 32.6434 17.011C32.3283 17.011 32.0734 16.9243 31.8778 16.7504C31.6822 16.5771 31.5845 16.3381 31.5845 16.0337C31.5845 15.6322 31.7203 15.2926 31.9919 15.0157C32.263 14.7388 32.5999 14.6004 33.0017 14.6004C33.3055 14.6004 33.5581 14.6899 33.7592 14.869C33.9598 15.0483 34.0606 15.2953 34.0606 15.6103C34.0605 16.0012 33.9221 16.3325 33.6452 16.6039Z" fill="#009CDE"/>
<path d="M17.2632 13.3948H16.0252C15.873 13.3948 15.7809 13.574 15.7482 13.9324C15.455 13.4982 14.9392 13.2808 14.2008 13.2808C13.4189 13.2808 12.7537 13.574 12.2054 14.1604C11.6569 14.7468 11.3828 15.4366 11.3828 16.2292C11.3828 16.8701 11.5702 17.3804 11.9448 17.7604C12.3195 18.1407 12.8216 18.3305 13.4515 18.3305C13.7554 18.3305 14.0705 18.2652 14.3962 18.135C14.722 18.0047 14.9827 17.831 15.1781 17.6138C15.1346 17.744 15.113 17.858 15.113 17.9557C15.113 18.1296 15.1835 18.2163 15.3247 18.2163H16.4486C16.6548 18.2163 16.7744 18.1133 16.807 17.9068L17.4748 13.6554C17.4855 13.5901 17.4693 13.5306 17.426 13.4762C17.3825 13.422 17.3283 13.3948 17.2632 13.3948ZM15.1375 16.6119C14.8605 16.8783 14.521 17.011 14.1195 17.011C13.8044 17.011 13.5519 16.9243 13.362 16.7504C13.1719 16.5771 13.0769 16.3381 13.0769 16.0337C13.0769 15.6322 13.2126 15.2926 13.4842 15.0157C13.7555 14.7388 14.0921 14.6003 14.4941 14.6003C14.798 14.6003 15.0505 14.6899 15.2516 14.869C15.4523 15.0483 15.5529 15.2953 15.5529 15.6103C15.5528 16.0121 15.4144 16.3462 15.1375 16.6119Z" fill="#003087"/>
<path d="M29.6513 11.4316C29.2332 11.1441 28.6877 11 28.0144 11H25.4244C25.2071 11 25.0876 11.1032 25.066 11.3094L24.0072 17.9552C23.9962 18.0205 24.0126 18.0802 24.0561 18.1344C24.0992 18.1888 24.1538 18.2158 24.2189 18.2158H25.5546C25.6849 18.2158 25.7717 18.1453 25.8152 18.0041L26.1085 16.1147C26.1193 16.0279 26.1572 15.9573 26.2225 15.9029C26.2877 15.8486 26.369 15.8132 26.4669 15.7969C26.5645 15.7808 26.6567 15.7726 26.7438 15.7726C26.8306 15.7726 26.9336 15.7781 27.0532 15.789C27.1726 15.7998 27.2489 15.8051 27.2812 15.8051C28.2152 15.8051 28.9481 15.542 29.4803 15.0151C30.0124 14.4885 30.2784 13.7583 30.2784 12.8242C30.2785 12.1835 30.0693 11.7193 29.6513 11.4314V11.4316ZM27.9818 14.1111C27.7429 14.274 27.3844 14.3554 26.9068 14.3554L26.3854 14.3717L26.6623 12.6287C26.6839 12.5094 26.7545 12.4496 26.874 12.4496H27.1672C27.4061 12.4496 27.5961 12.4605 27.7375 12.4822C27.8784 12.504 28.0144 12.5717 28.1446 12.6857C28.275 12.7998 28.3401 12.9654 28.3401 13.1825C28.3401 13.6388 28.2205 13.9481 27.9818 14.1111Z" fill="#009CDE"/>
</g>
<rect x="0.5" y="0.5" width="44" height="29" rx="4.5" stroke="#E2E4EB"/>
<defs>
<clipPath id="clip0_979_28262">
<rect width="34" height="15" fill="white" transform="translate(5.5 8)"/>
</clipPath>
</defs>
</svg>
