<svg width="45" height="30" viewBox="0 0 45 30" fill="none" xmlns="http://www.w3.org/2000/svg">
<g clip-path="url(#clip0_979_28240)">
<mask id="mask0_979_28240" style="mask-type:alpha" maskUnits="userSpaceOnUse" x="15" y="8" width="15" height="15">
<path fill-rule="evenodd" clip-rule="evenodd" d="M27.747 15.68C27.7493 15.7453 27.75 15.8098 27.75 15.875C27.75 18.9815 25.2315 21.5 22.125 21.5C19.0185 21.5 16.5 18.9815 16.5 15.875C16.5 12.7685 19.0185 10.25 22.125 10.25C23.268 10.25 24.3307 10.5905 25.218 11.1763L26.4428 10.2065C25.245 9.293 23.748 8.75 22.125 8.75C18.1897 8.75 15 11.9397 15 15.875C15 19.8103 18.1897 23 22.125 23C26.0603 23 29.25 19.8103 29.25 15.875C29.25 15.4348 29.2103 15.0035 29.1338 14.585L27.747 15.68Z" fill="#C4C4C4"/>
</mask>
<g mask="url(#mask0_979_28240)">
<path d="M27.7455 15.6523C27.7485 15.7265 27.75 15.8007 27.75 15.875C27.75 18.9815 25.2315 21.5 22.125 21.5C19.0185 21.5 16.5 18.9815 16.5 15.875C16.5 12.7685 19.0185 10.25 22.125 10.25C23.268 10.25 24.3307 10.5905 25.218 11.1763L26.4428 10.2065C25.245 9.293 23.748 8.75 22.125 8.75C18.1897 8.75 15 11.9397 15 15.875C15 19.8103 18.1897 23 22.125 23C26.0603 23 29.25 19.8103 29.25 15.875C29.25 15.4212 29.2072 14.9773 29.1262 14.5468L27.7455 15.6523Z" fill="#24A236"/>
<path d="M21.3029 14.7794C24.7839 14.7794 27.6058 11.9575 27.6058 8.47646C27.6058 4.99547 24.7839 2.17358 21.3029 2.17358C17.8219 2.17358 15 4.99547 15 8.47646C15 11.9575 17.8219 14.7794 21.3029 14.7794Z" fill="#008ACB"/>
<g filter="url(#filter0_f_979_28240)">
<path d="M20.4808 29.0294C23.5077 29.0294 25.9615 26.5756 25.9615 23.5486C25.9615 20.5217 23.5077 18.0679 20.4808 18.0679C17.4538 18.0679 15 20.5217 15 23.5486C15 26.5756 17.4538 29.0294 20.4808 29.0294Z" fill="#77F628"/>
</g>
<g filter="url(#filter1_f_979_28240)">
<path d="M15.5511 18.6158C18.578 18.6158 21.0319 16.162 21.0319 13.1351C21.0319 10.1081 18.578 7.6543 15.5511 7.6543C12.5241 7.6543 10.0703 10.1081 10.0703 13.1351C10.0703 16.162 12.5241 18.6158 15.5511 18.6158Z" fill="#19E7E8"/>
</g>
<g filter="url(#filter2_f_979_28240)">
<path d="M15.0018 23.0007C17.4234 23.0007 19.3864 21.0376 19.3864 18.6161C19.3864 16.1945 17.4234 14.2314 15.0018 14.2314C12.5802 14.2314 10.6172 16.1945 10.6172 18.6161C10.6172 21.0376 12.5802 23.0007 15.0018 23.0007Z" fill="#DEFA1B"/>
</g>
</g>
<path fill-rule="evenodd" clip-rule="evenodd" d="M28.5368 12.7632L22.125 17.75V15.875L27.7492 11.5002C28.0537 11.891 28.3178 12.314 28.5368 12.7632Z" fill="#24A236"/>
<path fill-rule="evenodd" clip-rule="evenodd" d="M19.5 16.1034L22.125 17.7496V15.8746L19.5 14.2336V16.1034Z" fill="#24A236"/>
</g>
<rect x="0.5" y="0.5" width="44" height="29" rx="4.5" stroke="#E2E4EB"/>
<defs>
<filter id="filter0_f_979_28240" x="7" y="10.0679" width="26.9609" height="26.9615" filterUnits="userSpaceOnUse" color-interpolation-filters="sRGB">
<feFlood flood-opacity="0" result="BackgroundImageFix"/>
<feBlend mode="normal" in="SourceGraphic" in2="BackgroundImageFix" result="shape"/>
<feGaussianBlur stdDeviation="4" result="effect1_foregroundBlur_979_28240"/>
</filter>
<filter id="filter1_f_979_28240" x="2.07031" y="-0.345703" width="26.9609" height="26.9615" filterUnits="userSpaceOnUse" color-interpolation-filters="sRGB">
<feFlood flood-opacity="0" result="BackgroundImageFix"/>
<feBlend mode="normal" in="SourceGraphic" in2="BackgroundImageFix" result="shape"/>
<feGaussianBlur stdDeviation="4" result="effect1_foregroundBlur_979_28240"/>
</filter>
<filter id="filter2_f_979_28240" x="4.61719" y="8.23145" width="20.7695" height="20.7692" filterUnits="userSpaceOnUse" color-interpolation-filters="sRGB">
<feFlood flood-opacity="0" result="BackgroundImageFix"/>
<feBlend mode="normal" in="SourceGraphic" in2="BackgroundImageFix" result="shape"/>
<feGaussianBlur stdDeviation="3" result="effect1_foregroundBlur_979_28240"/>
</filter>
<clipPath id="clip0_979_28240">
<rect width="15" height="15" fill="white" transform="translate(15 8)"/>
</clipPath>
</defs>
</svg>
