<svg width="45" height="30" viewBox="0 0 45 30" fill="none" xmlns="http://www.w3.org/2000/svg">
<g clip-path="url(#clip0_979_28257)">
<path fill-rule="evenodd" clip-rule="evenodd" d="M25.3016 22.58C29.2784 22.58 32.5016 19.3165 32.5016 15.29C32.5016 11.2635 29.2784 8 25.3016 8C21.3248 8 18.1016 11.2635 18.1016 15.29C18.1016 19.3165 21.3248 22.58 25.3016 22.58ZM25.3016 18.125C26.848 18.125 28.1016 16.8557 28.1016 15.29C28.1016 13.7243 26.848 12.455 25.3016 12.455C23.7552 12.455 22.5016 13.7243 22.5016 15.29C22.5016 16.8557 23.7552 18.125 25.3016 18.125Z" fill="#8A42F9"/>
<path d="M18.1 10.4302H12.5L15.4864 20.1502H18.1V10.4302Z" fill="#8A42F9"/>
</g>
<rect x="0.5" y="0.5" width="44" height="29" rx="4.5" stroke="#E2E4EB"/>
<defs>
<clipPath id="clip0_979_28257">
<rect width="20" height="15" fill="white" transform="translate(12.5 8)"/>
</clipPath>
</defs>
</svg>
